<svg width="285" height="285" viewBox="0 0 285 285" fill="none" xmlns="http://www.w3.org/2000/svg">
<path d="M142.5 23.75C111.13 24.1501 81.1573 36.7896 58.9734 58.9734C36.7896 81.1573 24.1501 111.13 23.75 142.5C23.8966 160.775 28.2592 178.769 36.498 195.082C44.7367 211.394 56.6294 225.585 71.25 236.55V237.5H72.4375C92.544 252.908 117.169 261.258 142.5 261.258C167.831 261.258 192.456 252.908 212.562 237.5H213.75V236.55C228.371 225.585 240.263 211.394 248.502 195.082C256.741 178.769 261.103 160.775 261.25 142.5C260.85 111.13 248.21 81.1573 226.027 58.9734C203.843 36.7896 173.87 24.1501 142.5 23.75ZM95.8312 224.794C97.5648 216.855 101.961 209.747 108.289 204.649C114.618 199.552 122.499 196.771 130.625 196.769H154.375C162.501 196.771 170.382 199.552 176.711 204.649C183.039 209.747 187.435 216.855 189.169 224.794C175.024 233.116 158.911 237.504 142.5 237.504C126.089 237.504 109.976 233.116 95.8312 224.794ZM209.119 209.475C204.602 198.68 196.996 189.46 187.256 182.974C177.516 176.488 166.077 173.025 154.375 173.019H130.625C118.923 173.025 107.484 176.488 97.744 182.974C88.0042 189.46 80.3982 198.68 75.8812 209.475C66.9829 200.723 59.8963 190.303 55.0265 178.811C50.1567 167.32 47.5992 154.981 47.5 142.5C47.808 117.4 57.9158 93.4151 75.6654 75.6654C93.4151 57.9158 117.4 47.808 142.5 47.5C167.6 47.808 191.585 57.9158 209.335 75.6654C227.084 93.4151 237.192 117.4 237.5 142.5C237.401 154.981 234.843 167.32 229.973 178.811C225.104 190.303 218.017 200.723 209.119 209.475Z" fill="white"/>
<path d="M142.5 71.25C136.222 71.1038 129.98 72.2325 124.151 74.5678C118.322 76.9031 113.027 80.3966 108.587 84.8368C104.146 89.2771 100.653 94.5719 98.3177 100.401C95.9823 106.23 94.8537 112.472 94.9999 118.75C94.8537 125.028 95.9823 131.27 98.3177 137.099C100.653 142.928 104.146 148.223 108.587 152.663C113.027 157.103 118.322 160.597 124.151 162.932C129.98 165.268 136.222 166.396 142.5 166.25C148.778 166.396 155.02 165.268 160.849 162.932C166.678 160.597 171.973 157.103 176.413 152.663C180.853 148.223 184.347 142.928 186.682 137.099C189.017 131.27 190.146 125.028 190 118.75C190.146 112.472 189.017 106.23 186.682 100.401C184.347 94.5719 180.853 89.2771 176.413 84.8368C171.973 80.3966 166.678 76.9031 160.849 74.5678C155.02 72.2325 148.778 71.1038 142.5 71.25ZM142.5 142.5C139.341 142.653 136.184 142.143 133.234 141.003C130.283 139.864 127.603 138.12 125.367 135.883C123.13 133.647 121.386 130.967 120.246 128.016C119.107 125.066 118.597 121.909 118.75 118.75C118.597 115.591 119.107 112.434 120.246 109.484C121.386 106.533 123.13 103.853 125.367 101.617C127.603 99.3801 130.283 97.6361 133.234 96.4966C136.184 95.357 139.341 94.8473 142.5 95C145.659 94.8473 148.816 95.357 151.766 96.4966C154.717 97.6361 157.397 99.3801 159.633 101.617C161.87 103.853 163.614 106.533 164.753 109.484C165.893 112.434 166.403 115.591 166.25 118.75C166.403 121.909 165.893 125.066 164.753 128.016C163.614 130.967 161.87 133.647 159.633 135.883C157.397 138.12 154.717 139.864 151.766 141.003C148.816 142.143 145.659 142.653 142.5 142.5Z" fill="white"/>
<path d="M227.5 223.375H264.875V243.5H270.625V223.375C270.625 220.204 268.046 217.625 264.875 217.625H227.5C224.329 217.625 221.75 220.204 221.75 223.375V257.875C221.75 261.046 224.329 263.625 227.5 263.625H250.5V257.875H227.5V223.375Z" fill="#FFB703"/>
<path d="M239 240.625L230.375 252.125H262L250.5 234.875L241.875 246.375L239 240.625Z" fill="#FFB703"/>
<path d="M270.625 249.25H264.875V257.875H256.25V263.625H264.875V272.25H270.625V263.625H279.25V257.875H270.625V249.25Z" fill="#FFB703"/>
</svg>
