<svg width="334" height="271" viewBox="0 0 334 271" fill="none" xmlns="http://www.w3.org/2000/svg">
<path d="M317.3 185.904C317.309 175.663 316.302 165.446 314.294 155.407C312.331 145.631 309.365 136.088 305.443 126.932C301.724 118.036 297.078 109.563 291.582 101.659C286.207 93.5949 280.054 86.0884 273.212 79.2492C266.338 72.102 258.723 65.719 250.5 60.2096C242.507 54.6333 233.94 49.9445 224.949 46.2248L217.1 43.0235V17.4128C217.1 12.9441 215.341 8.65846 212.209 5.49863C209.077 2.33881 204.829 0.563629 200.4 0.563629H133.6C129.171 0.563629 124.923 2.33881 121.791 5.49863C118.659 8.65846 116.9 12.9441 116.9 17.4128V43.0235L108.55 46.2248C99.7321 49.977 91.3348 54.665 83.5 60.2096C75.4759 65.5891 68.0317 71.801 61.289 78.7437C54.2051 85.6796 47.8786 93.3618 42.418 101.659C36.8911 109.723 32.2438 118.366 28.557 127.438C24.6859 136.613 21.7212 146.151 19.706 155.913C17.7311 165.786 16.7243 175.832 16.7 185.904V236.452H0V270.15H334V236.452H317.3V185.904ZM50.1 185.904C50.1171 177.928 50.9001 169.971 52.438 162.147C53.9584 154.571 56.253 147.174 59.285 140.075C62.2124 133.066 65.791 126.352 69.973 120.024C78.4494 107.426 89.2161 96.5628 101.703 88.0107C106.56 84.7858 111.638 81.9142 116.9 79.4176V185.904H150.3V34.2619H183.7V185.904H217.1V79.4176C222.343 81.9508 227.419 84.8211 232.297 88.0107C238.298 92.3068 243.889 97.1578 248.997 102.501C254.285 107.615 259.041 113.261 263.192 119.35C267.55 125.598 271.191 132.325 274.047 139.401C277.028 146.519 279.321 153.91 280.894 161.473C282.7 169.495 283.707 177.68 283.9 185.904V236.452H50.1V185.904Z" fill="url(#paint0_linear_9_4)"/>
<defs>
<linearGradient id="paint0_linear_9_4" x1="-51" y1="270.15" x2="297" y2="270.15" gradientUnits="userSpaceOnUse">
<stop stop-color="#FFB703"/>
<stop offset="1" stop-color="#996E02"/>
</linearGradient>
</defs>
</svg>
